<svg version="1.1" id="Layer_1" xmlns="http://www.w3.org/2000/svg" xmlns:xlink="http://www.w3.org/1999/xlink" x="0px" y="0px"
	 width="100%" viewBox="0 0 3780 3780" enable-background="new 0 0 3780 3780" xml:space="preserve">
<path fill="#25D366" opacity="1.000000" stroke="none" 
	d="
M3782.000000,15.999999 
	C3782.000000,1266.741821 3782.000000,2517.483643 3781.091309,3768.984131 
	C3777.183350,3769.719727 3774.184082,3769.677002 3771.185059,3769.677002 
	C2518.449707,3769.674072 1265.714111,3769.673828 12.978687,3769.687500 
	C9.319123,3769.687744 5.659562,3769.891357 1.999999,3770.000000 
	C2.000000,2519.258057 2.000000,1268.516235 2.911102,16.781513 
	C6.821388,15.769519 9.820572,15.733692 12.819756,15.733686 
	C1265.551514,15.731287 2518.283447,15.731097 3771.015137,15.742389 
	C3774.676758,15.742422 3778.338379,15.910440 3782.000000,15.999999 
M2945.642090,2519.012939 
	C2960.532471,2492.304199 2975.980957,2465.887939 2990.182129,2438.817383 
	C3011.365723,2398.437012 3029.616455,2356.662109 3044.973877,2313.731445 
	C3055.047607,2285.570801 3064.353271,2257.091309 3072.755859,2228.389648 
	C3079.944336,2203.835449 3086.038818,2178.906738 3091.375977,2153.879150 
	C3097.412842,2125.569336 3103.094971,2097.106934 3107.063721,2068.452393 
	C3112.270752,2030.856934 3115.921875,1993.058960 3117.178223,1955.035889 
	C3118.897217,1903.012817 3118.638428,1851.071045 3113.144531,1799.278687 
	C3110.089844,1770.483398 3107.214600,1741.603516 3102.397705,1713.075806 
	C3094.308105,1665.166138 3083.352295,1617.870361 3069.335693,1571.254272 
	C3057.348877,1531.389038 3043.579346,1492.212769 3027.579102,1453.834839 
	C3004.502686,1398.484009 2977.326416,1345.180664 2946.123291,1293.942017 
	C2905.659668,1227.495850 2859.256836,1165.493042 2806.731201,1108.124390 
	C2765.501953,1063.093628 2721.240723,1021.239929 2673.711426,982.864380 
	C2604.831055,927.249939 2530.991943,879.278564 2451.675781,839.982544 
	C2421.016357,824.792786 2389.799561,810.581543 2358.170166,797.540771 
	C2330.232422,786.022095 2301.566650,776.149231 2272.849854,766.679688 
	C2250.447021,759.292297 2227.563721,753.291199 2204.724365,747.322510 
	C2185.416992,742.276978 2165.972900,737.623718 2146.398682,733.762756 
	C2117.680176,728.098206 2088.924316,722.326294 2059.943604,718.357361 
	C2019.024536,712.753540 1977.887695,709.148438 1936.528931,707.723511 
	C1893.838867,706.252747 1851.179443,706.633606 1808.624512,709.198669 
	C1763.427002,711.922913 1718.333008,716.634033 1673.827637,725.512573 
	C1642.835083,731.695435 1611.569946,736.922241 1581.045898,744.935486 
	C1544.736938,754.467346 1508.871582,765.860291 1473.207397,777.637756 
	C1413.053223,797.502747 1355.521851,823.619507 1299.603760,853.296875 
	C1233.594727,888.329956 1171.171753,928.976990 1112.750366,975.518799 
	C1036.375366,1036.363525 967.964355,1105.206909 908.110779,1182.501587 
	C861.912476,1242.161987 821.679749,1305.546631 787.442444,1372.763672 
	C761.748901,1423.206787 739.895081,1475.239746 721.614685,1528.838013 
	C708.819458,1566.353882 697.822083,1604.368286 688.979919,1642.950439 
	C680.728943,1678.953369 674.290466,1715.319092 669.329895,1751.984619 
	C663.869751,1792.343018 661.001404,1832.857422 659.513367,1873.473999 
	C657.042419,1940.915771 661.702881,2008.052124 671.255005,2074.774170 
	C677.102600,2115.620117 685.431580,2156.038574 695.707397,2196.085693 
	C707.132874,2240.613281 720.880127,2284.362793 737.339111,2327.216309 
	C760.390137,2387.233154 788.104492,2445.100830 820.715149,2500.541504 
	C864.918579,2575.691406 916.565613,2645.295410 975.759521,2709.389648 
	C1035.678711,2774.269287 1101.984619,2831.711670 1174.301880,2882.249512 
	C1224.012207,2916.989014 1276.095093,2947.836426 1330.437622,2974.777588 
	C1371.577148,2995.173096 1413.560547,3013.717285 1456.932739,3028.859863 
	C1485.493774,3038.831787 1514.145996,3048.709961 1543.226685,3056.979980 
	C1573.920288,3065.708496 1604.981567,3073.399414 1636.234131,3079.834229 
	C1665.867676,3085.935791 1695.935669,3089.959961 1725.851196,3094.653076 
	C1768.064453,3101.275391 1810.694824,3103.137207 1853.288574,3105.170654 
	C1896.968140,3107.255615 1940.596680,3104.984863 1984.134888,3101.868896 
	C2025.661255,3098.896484 2066.903076,3093.376953 2107.949219,3086.128662 
	C2150.276855,3078.654297 2192.112061,3069.174316 2233.410889,3057.441650 
	C2279.186768,3044.437500 2324.120117,3028.865967 2368.077637,3010.558838 
	C2404.632568,2995.334717 2440.631592,2978.917969 2475.410645,2959.951172 
	C2493.810791,2949.916504 2511.902100,2939.316895 2530.249268,2929.183594 
	C2534.446533,2926.864990 2538.312744,2923.514160 2544.105713,2925.349609 
	C2572.002441,2934.190186 2600.018555,2942.654785 2627.952393,2951.380127 
	C2658.106201,2960.798828 2688.190186,2970.440918 2718.352295,2979.833008 
	C2748.828369,2989.322754 2779.387451,2998.544922 2809.864502,3008.031982 
	C2844.800049,3018.907715 2879.659668,3030.027832 2914.599121,3040.890137 
	C2949.526611,3051.748779 2984.541260,3062.326416 3019.463623,3073.199707 
	C3054.073242,3083.975342 3088.604004,3095.002441 3123.207031,3105.798584 
	C3126.134766,3106.711914 3129.346924,3106.713867 3132.865479,3107.199463 
	C3132.865479,3104.506104 3133.204346,3103.108643 3132.815918,3101.956299 
	C3122.520020,3071.398193 3112.189453,3040.851074 3101.780273,3010.331055 
	C3089.437256,2974.140137 3076.924805,2938.006592 3064.654541,2901.791016 
	C3053.771729,2869.670654 3043.226562,2837.436035 3032.336670,2805.318115 
	C3021.445068,2773.195557 3010.254150,2741.174561 2999.299072,2709.073242 
	C2989.417480,2680.117676 2979.707275,2651.104004 2969.866943,2622.134521 
	C2960.776367,2595.372803 2951.668457,2568.616699 2942.447266,2541.899902 
	C2939.794678,2534.214111 2939.365479,2526.964355 2945.642090,2519.012939 
z"/>
<path fill="#010704" opacity="1.000000" stroke="none" 
	d="
M3782.000000,15.030390 
	C3778.338379,15.910440 3774.676758,15.742422 3771.015137,15.742389 
	C2518.283447,15.731097 1265.551514,15.731287 12.819756,15.733686 
	C9.820572,15.733692 6.821388,15.769519 2.911102,15.894307 
	C2.000000,11.334485 2.000000,6.668969 2.000000,2.031880 
	C1262.000000,2.031880 2522.000000,2.031880 3782.000000,2.031880 
	C3782.000000,6.062767 3782.000000,10.061774 3782.000000,15.030390 
z"/>
<path fill="#000000" opacity="1.000000" stroke="none" 
	d="
M1.999999,3770.985840 
	C5.659562,3769.891357 9.319123,3769.687744 12.978687,3769.687500 
	C1265.714111,3769.673828 2518.449707,3769.674072 3771.185059,3769.677002 
	C3774.184082,3769.677002 3777.183350,3769.719727 3781.091309,3769.871338 
	C3782.000000,3773.999023 3782.000000,3777.997803 3782.000000,3781.990723 
	C2522.000000,3781.984619 1262.000000,3781.984619 2.000000,3781.984619 
	C2.000000,3778.636719 2.000000,3775.304199 1.999999,3770.985840 
z"/>
<path fill="#FDFFFE" opacity="1.000000" stroke="none" 
	d="
M2945.255127,2519.647705 
	C2939.365479,2526.964355 2939.794678,2534.214111 2942.447266,2541.899902 
	C2951.668457,2568.616699 2960.776367,2595.372803 2969.866943,2622.134521 
	C2979.707275,2651.104004 2989.417480,2680.117676 2999.299072,2709.073242 
	C3010.254150,2741.174561 3021.445068,2773.195557 3032.336670,2805.318115 
	C3043.226562,2837.436035 3053.771729,2869.670654 3064.654541,2901.791016 
	C3076.924805,2938.006592 3089.437256,2974.140137 3101.780273,3010.331055 
	C3112.189453,3040.851074 3122.520020,3071.398193 3132.815918,3101.956299 
	C3133.204346,3103.108643 3132.865479,3104.506104 3132.865479,3107.199463 
	C3129.346924,3106.713867 3126.134766,3106.711914 3123.207031,3105.798584 
	C3088.604004,3095.002441 3054.073242,3083.975342 3019.463623,3073.199707 
	C2984.541260,3062.326416 2949.526611,3051.748779 2914.599121,3040.890137 
	C2879.659668,3030.027832 2844.800049,3018.907715 2809.864502,3008.031982 
	C2779.387451,2998.544922 2748.828369,2989.322754 2718.352295,2979.833008 
	C2688.190186,2970.440918 2658.106201,2960.798828 2627.952393,2951.380127 
	C2600.018555,2942.654785 2572.002441,2934.190186 2544.105713,2925.349609 
	C2538.312744,2923.514160 2534.446533,2926.864990 2530.249268,2929.183594 
	C2511.902100,2939.316895 2493.810791,2949.916504 2475.410645,2959.951172 
	C2440.631592,2978.917969 2404.632568,2995.334717 2368.077637,3010.558838 
	C2324.120117,3028.865967 2279.186768,3044.437500 2233.410889,3057.441650 
	C2192.112061,3069.174316 2150.276855,3078.654297 2107.949219,3086.128662 
	C2066.903076,3093.376953 2025.661255,3098.896484 1984.134888,3101.868896 
	C1940.596680,3104.984863 1896.968140,3107.255615 1853.288574,3105.170654 
	C1810.694824,3103.137207 1768.064453,3101.275391 1725.851196,3094.653076 
	C1695.935669,3089.959961 1665.867676,3085.935791 1636.234131,3079.834229 
	C1604.981567,3073.399414 1573.920288,3065.708496 1543.226685,3056.979980 
	C1514.145996,3048.709961 1485.493774,3038.831787 1456.932739,3028.859863 
	C1413.560547,3013.717285 1371.577148,2995.173096 1330.437622,2974.777588 
	C1276.095093,2947.836426 1224.012207,2916.989014 1174.301880,2882.249512 
	C1101.984619,2831.711670 1035.678711,2774.269287 975.759521,2709.389648 
	C916.565613,2645.295410 864.918579,2575.691406 820.715149,2500.541504 
	C788.104492,2445.100830 760.390137,2387.233154 737.339111,2327.216309 
	C720.880127,2284.362793 707.132874,2240.613281 695.707397,2196.085693 
	C685.431580,2156.038574 677.102600,2115.620117 671.255005,2074.774170 
	C661.702881,2008.052124 657.042419,1940.915771 659.513367,1873.473999 
	C661.001404,1832.857422 663.869751,1792.343018 669.329895,1751.984619 
	C674.290466,1715.319092 680.728943,1678.953369 688.979919,1642.950439 
	C697.822083,1604.368286 708.819458,1566.353882 721.614685,1528.838013 
	C739.895081,1475.239746 761.748901,1423.206787 787.442444,1372.763672 
	C821.679749,1305.546631 861.912476,1242.161987 908.110779,1182.501587 
	C967.964355,1105.206909 1036.375366,1036.363525 1112.750366,975.518799 
	C1171.171753,928.976990 1233.594727,888.329956 1299.603760,853.296875 
	C1355.521851,823.619507 1413.053223,797.502747 1473.207397,777.637756 
	C1508.871582,765.860291 1544.736938,754.467346 1581.045898,744.935486 
	C1611.569946,736.922241 1642.835083,731.695435 1673.827637,725.512573 
	C1718.333008,716.634033 1763.427002,711.922913 1808.624512,709.198669 
	C1851.179443,706.633606 1893.838867,706.252747 1936.528931,707.723511 
	C1977.887695,709.148438 2019.024536,712.753540 2059.943604,718.357361 
	C2088.924316,722.326294 2117.680176,728.098206 2146.398682,733.762756 
	C2165.972900,737.623718 2185.416992,742.276978 2204.724365,747.322510 
	C2227.563721,753.291199 2250.447021,759.292297 2272.849854,766.679688 
	C2301.566650,776.149231 2330.232422,786.022095 2358.170166,797.540771 
	C2389.799561,810.581543 2421.016357,824.792786 2451.675781,839.982544 
	C2530.991943,879.278564 2604.831055,927.249939 2673.711426,982.864380 
	C2721.240723,1021.239929 2765.501953,1063.093628 2806.731201,1108.124390 
	C2859.256836,1165.493042 2905.659668,1227.495850 2946.123291,1293.942017 
	C2977.326416,1345.180664 3004.502686,1398.484009 3027.579102,1453.834839 
	C3043.579346,1492.212769 3057.348877,1531.389038 3069.335693,1571.254272 
	C3083.352295,1617.870361 3094.308105,1665.166138 3102.397705,1713.075806 
	C3107.214600,1741.603516 3110.089844,1770.483398 3113.144531,1799.278687 
	C3118.638428,1851.071045 3118.897217,1903.012817 3117.178223,1955.035889 
	C3115.921875,1993.058960 3112.270752,2030.856934 3107.063721,2068.452393 
	C3103.094971,2097.106934 3097.412842,2125.569336 3091.375977,2153.879150 
	C3086.038818,2178.906738 3079.944336,2203.835449 3072.755859,2228.389648 
	C3064.353271,2257.091309 3055.047607,2285.570801 3044.973877,2313.731445 
	C3029.616455,2356.662109 3011.365723,2398.437012 2990.182129,2438.817383 
	C2975.980957,2465.887939 2960.532471,2492.304199 2945.255127,2519.647705 
M1031.222900,1354.345215 
	C1019.763000,1372.635986 1007.817200,1390.643921 996.967712,1409.289795 
	C983.805969,1431.909668 970.739929,1454.656006 959.106750,1478.079712 
	C935.282715,1526.049805 915.960938,1575.893799 900.921631,1627.320068 
	C895.793274,1644.855957 891.323303,1662.610107 887.258728,1680.425537 
	C881.656982,1704.978638 875.973511,1729.555908 871.730103,1754.363037 
	C867.926453,1776.598755 865.117371,1799.094849 863.511414,1821.593262 
	C861.500854,1849.759521 860.923401,1878.039307 860.223022,1906.282471 
	C859.918762,1918.548584 861.274841,1930.850098 861.136230,1943.127197 
	C860.804871,1972.478638 865.138367,2001.455200 867.591919,2030.582397 
	C867.701904,2031.887817 868.354370,2033.138306 868.576416,2034.444580 
	C870.849304,2047.818848 872.968018,2061.220459 875.360840,2074.572998 
	C878.525452,2092.231201 881.397644,2109.965088 885.337708,2127.454346 
	C888.456665,2141.298340 893.046448,2154.808105 896.887329,2168.493408 
	C900.455078,2181.206055 903.324951,2194.146240 907.522156,2206.643311 
	C914.373840,2227.043945 921.479614,2247.399170 929.544006,2267.342285 
	C937.974976,2288.192139 947.217346,2308.747070 956.933411,2329.034424 
	C966.113647,2348.202637 975.860291,2367.141113 986.251221,2385.679932 
	C1014.122070,2435.405273 1046.349854,2482.223877 1082.449585,2526.330566 
	C1092.977661,2539.193604 1104.015015,2551.677734 1115.388306,2563.801758 
	C1134.022095,2583.665283 1152.314087,2603.960938 1172.235718,2622.476318 
	C1195.592773,2644.184326 1219.746948,2665.211914 1245.007812,2684.646973 
	C1272.633057,2705.901367 1301.373169,2725.838379 1330.623779,2744.813477 
	C1364.354370,2766.694824 1399.430664,2786.398193 1436.494873,2802.328857 
	C1459.573608,2812.248291 1482.138672,2823.449219 1505.541504,2832.505371 
	C1532.741699,2843.031006 1560.428589,2852.401367 1588.243774,2861.199707 
	C1607.244385,2867.209961 1626.755249,2871.683105 1646.172485,2876.274902 
	C1660.389038,2879.636475 1674.808472,2882.155273 1689.165649,2884.902832 
	C1704.827515,2887.899902 1720.449219,2891.224854 1736.217529,2893.520752 
	C1765.490356,2897.782471 1794.886108,2900.628662 1824.471436,2902.412109 
	C1861.385986,2904.637207 1898.225952,2905.749512 1935.117554,2903.573730 
	C1958.344727,2902.203613 1981.522217,2899.993164 2004.720947,2898.145020 
	C2009.699219,2897.748779 2014.726685,2897.617676 2019.638916,2896.804932 
	C2043.533081,2892.851074 2067.431152,2888.900146 2091.257812,2884.564453 
	C2107.897461,2881.536621 2124.645996,2878.715332 2140.951660,2874.334473 
	C2167.869141,2867.102539 2195.050049,2860.737061 2221.072754,2850.294922 
	C2237.688232,2843.627441 2255.096680,2838.962891 2271.867920,2832.651123 
	C2334.593994,2809.045410 2393.756592,2778.268799 2450.465820,2742.703125 
	C2467.929932,2731.750244 2485.141846,2720.384033 2502.244873,2708.873047 
	C2506.853271,2705.771240 2511.291260,2704.940918 2516.352051,2706.505615 
	C2531.276367,2711.121338 2546.181396,2715.800293 2561.092773,2720.457275 
	C2587.109131,2728.582275 2613.117432,2736.733154 2639.143066,2744.827881 
	C2664.546875,2752.729004 2689.982422,2760.529053 2715.378906,2768.453369 
	C2745.215576,2777.762939 2775.011475,2787.204346 2804.867920,2796.450195 
	C2808.114258,2797.455566 2811.642822,2797.549561 2815.947510,2798.204102 
	C2815.601807,2794.445557 2815.810303,2792.079102 2815.125488,2790.008057 
	C2810.426270,2775.801270 2805.540283,2761.656250 2800.713379,2747.491699 
	C2791.169678,2719.484619 2781.613770,2691.481445 2772.083984,2663.469482 
	C2761.054688,2631.050781 2750.059082,2598.621338 2739.027832,2566.203369 
	C2732.815430,2547.947510 2726.684814,2529.661865 2720.262695,2511.479736 
	C2717.729492,2504.307861 2718.677246,2498.611816 2723.073730,2491.992188 
	C2743.123779,2461.805176 2762.594727,2431.229736 2782.026367,2400.636963 
	C2801.827637,2369.461670 2817.688232,2336.184082 2832.885986,2302.624268 
	C2839.858643,2287.227783 2844.698486,2270.859131 2851.780273,2255.519531 
	C2862.811279,2231.625977 2869.761230,2206.413574 2877.335449,2181.405273 
	C2883.180664,2162.104004 2888.771240,2142.661133 2893.079590,2122.975830 
	C2898.540039,2098.025146 2903.024658,2072.835693 2907.080322,2047.612427 
	C2909.499756,2032.566040 2910.287109,2017.257690 2911.822510,2002.068481 
	C2911.922363,2001.079346 2912.184326,2000.107300 2912.302246,1999.119141 
	C2913.443115,1989.552246 2915.242676,1980.005981 2915.563477,1970.410889 
	C2916.307861,1948.148804 2916.711426,1925.859863 2916.553223,1903.586914 
	C2916.378418,1878.977051 2916.165527,1854.324341 2914.564453,1829.781982 
	C2913.357422,1811.275879 2909.900391,1792.919067 2907.514404,1774.486694 
	C2905.641602,1760.016724 2904.563232,1745.404785 2901.897705,1731.085571 
	C2898.069824,1710.521973 2893.625244,1690.039551 2888.507812,1669.758667 
	C2883.318359,1649.192627 2877.598877,1628.716064 2871.035156,1608.550659 
	C2857.250488,1566.200195 2840.932861,1524.807617 2821.437012,1484.725830 
	C2808.090576,1457.286743 2793.525879,1430.542114 2777.948242,1404.256836 
	C2759.947754,1373.883911 2740.367188,1344.644165 2719.127930,1316.556763 
	C2687.801025,1275.128662 2653.505371,1236.316040 2616.097168,1200.124268 
	C2589.994141,1174.869995 2563.059570,1150.639404 2534.306396,1128.617432 
	C2507.927734,1108.413818 2480.559326,1089.405151 2452.788574,1071.144775 
	C2427.263428,1054.360840 2401.073730,1038.565430 2373.065430,1025.916626 
	C2349.794434,1015.407104 2327.471924,1002.776428 2304.105713,992.504028 
	C2266.378174,975.918213 2227.522705,962.319458 2187.885010,950.830139 
	C2154.002686,941.009094 2119.916748,932.262268 2085.186279,926.105896 
	C2074.728760,924.252258 2064.191650,922.836914 2053.677246,921.314819 
	C2034.648926,918.560059 2015.616577,915.830994 1996.569580,913.209656 
	C1993.626831,912.804626 1990.580566,913.210327 1987.611450,912.930176 
	C1975.708496,911.807129 1963.838745,910.224609 1951.915161,909.457520 
	C1940.319702,908.711609 1928.673584,908.747559 1917.049194,908.454224 
	C1908.744263,908.244690 1900.437744,907.859802 1892.133789,907.904968 
	C1877.213013,907.986145 1862.282227,908.044189 1847.376709,908.640747 
	C1829.411377,909.359741 1811.431519,910.216248 1793.526367,911.791077 
	C1779.011475,913.067749 1764.602295,915.527832 1750.138062,917.401855 
	C1735.018799,919.360779 1719.741699,920.474487 1704.799194,923.341125 
	C1681.036011,927.900146 1657.478516,933.543335 1633.867554,938.876038 
	C1628.391357,940.112854 1623.078125,942.053284 1617.640747,943.483948 
	C1604.213013,947.016785 1590.564819,949.838501 1577.356079,954.047363 
	C1555.896118,960.885498 1534.332397,967.663025 1513.508545,976.169983 
	C1482.162476,988.975342 1451.188110,1002.760498 1420.506104,1017.093079 
	C1403.397827,1025.084839 1386.991577,1034.667480 1370.642944,1044.176147 
	C1348.013794,1057.337769 1325.414551,1070.605225 1303.419189,1084.783691 
	C1288.110840,1094.651611 1273.589966,1105.804932 1259.162964,1116.960693 
	C1239.184570,1132.409058 1218.806030,1147.491455 1200.086914,1164.380005 
	C1175.175903,1186.854980 1151.349487,1210.573364 1127.742676,1234.435791 
	C1115.130493,1247.184570 1104.119263,1261.502686 1092.101807,1274.857178 
	C1070.022827,1299.392822 1050.833862,1326.119507 1031.222900,1354.345215 
z"/>
<path fill="#26D366" opacity="1.000000" stroke="none" 
	d="
M1031.630615,1353.752563 
	C1050.833862,1326.119507 1070.022827,1299.392822 1092.101807,1274.857178 
	C1104.119263,1261.502686 1115.130493,1247.184570 1127.742676,1234.435791 
	C1151.349487,1210.573364 1175.175903,1186.854980 1200.086914,1164.380005 
	C1218.806030,1147.491455 1239.184570,1132.409058 1259.162964,1116.960693 
	C1273.589966,1105.804932 1288.110840,1094.651611 1303.419189,1084.783691 
	C1325.414551,1070.605225 1348.013794,1057.337769 1370.642944,1044.176147 
	C1386.991577,1034.667480 1403.397827,1025.084839 1420.506104,1017.093079 
	C1451.188110,1002.760498 1482.162476,988.975342 1513.508545,976.169983 
	C1534.332397,967.663025 1555.896118,960.885498 1577.356079,954.047363 
	C1590.564819,949.838501 1604.213013,947.016785 1617.640747,943.483948 
	C1623.078125,942.053284 1628.391357,940.112854 1633.867554,938.876038 
	C1657.478516,933.543335 1681.036011,927.900146 1704.799194,923.341125 
	C1719.741699,920.474487 1735.018799,919.360779 1750.138062,917.401855 
	C1764.602295,915.527832 1779.011475,913.067749 1793.526367,911.791077 
	C1811.431519,910.216248 1829.411377,909.359741 1847.376709,908.640747 
	C1862.282227,908.044189 1877.213013,907.986145 1892.133789,907.904968 
	C1900.437744,907.859802 1908.744263,908.244690 1917.049194,908.454224 
	C1928.673584,908.747559 1940.319702,908.711609 1951.915161,909.457520 
	C1963.838745,910.224609 1975.708496,911.807129 1987.611450,912.930176 
	C1990.580566,913.210327 1993.626831,912.804626 1996.569580,913.209656 
	C2015.616577,915.830994 2034.648926,918.560059 2053.677246,921.314819 
	C2064.191650,922.836914 2074.728760,924.252258 2085.186279,926.105896 
	C2119.916748,932.262268 2154.002686,941.009094 2187.885010,950.830139 
	C2227.522705,962.319458 2266.378174,975.918213 2304.105713,992.504028 
	C2327.471924,1002.776428 2349.794434,1015.407104 2373.065430,1025.916626 
	C2401.073730,1038.565430 2427.263428,1054.360840 2452.788574,1071.144775 
	C2480.559326,1089.405151 2507.927734,1108.413818 2534.306396,1128.617432 
	C2563.059570,1150.639404 2589.994141,1174.869995 2616.097168,1200.124268 
	C2653.505371,1236.316040 2687.801025,1275.128662 2719.127930,1316.556763 
	C2740.367188,1344.644165 2759.947754,1373.883911 2777.948242,1404.256836 
	C2793.525879,1430.542114 2808.090576,1457.286743 2821.437012,1484.725830 
	C2840.932861,1524.807617 2857.250488,1566.200195 2871.035156,1608.550659 
	C2877.598877,1628.716064 2883.318359,1649.192627 2888.507812,1669.758667 
	C2893.625244,1690.039551 2898.069824,1710.521973 2901.897705,1731.085571 
	C2904.563232,1745.404785 2905.641602,1760.016724 2907.514404,1774.486694 
	C2909.900391,1792.919067 2913.357422,1811.275879 2914.564453,1829.781982 
	C2916.165527,1854.324341 2916.378418,1878.977051 2916.553223,1903.586914 
	C2916.711426,1925.859863 2916.307861,1948.148804 2915.563477,1970.410889 
	C2915.242676,1980.005981 2913.443115,1989.552246 2912.302246,1999.119141 
	C2912.184326,2000.107300 2911.922363,2001.079346 2911.822510,2002.068481 
	C2910.287109,2017.257690 2909.499756,2032.566040 2907.080322,2047.612427 
	C2903.024658,2072.835693 2898.540039,2098.025146 2893.079590,2122.975830 
	C2888.771240,2142.661133 2883.180664,2162.104004 2877.335449,2181.405273 
	C2869.761230,2206.413574 2862.811279,2231.625977 2851.780273,2255.519531 
	C2844.698486,2270.859131 2839.858643,2287.227783 2832.885986,2302.624268 
	C2817.688232,2336.184082 2801.827637,2369.461670 2782.026367,2400.636963 
	C2762.594727,2431.229736 2743.123779,2461.805176 2723.073730,2491.992188 
	C2718.677246,2498.611816 2717.729492,2504.307861 2720.262695,2511.479736 
	C2726.684814,2529.661865 2732.815430,2547.947510 2739.027832,2566.203369 
	C2750.059082,2598.621338 2761.054688,2631.050781 2772.083984,2663.469482 
	C2781.613770,2691.481445 2791.169678,2719.484619 2800.713379,2747.491699 
	C2805.540283,2761.656250 2810.426270,2775.801270 2815.125488,2790.008057 
	C2815.810303,2792.079102 2815.601807,2794.445557 2815.947510,2798.204102 
	C2811.642822,2797.549561 2808.114258,2797.455566 2804.867920,2796.450195 
	C2775.011475,2787.204346 2745.215576,2777.762939 2715.378906,2768.453369 
	C2689.982422,2760.529053 2664.546875,2752.729004 2639.143066,2744.827881 
	C2613.117432,2736.733154 2587.109131,2728.582275 2561.092773,2720.457275 
	C2546.181396,2715.800293 2531.276367,2711.121338 2516.352051,2706.505615 
	C2511.291260,2704.940918 2506.853271,2705.771240 2502.244873,2708.873047 
	C2485.141846,2720.384033 2467.929932,2731.750244 2450.465820,2742.703125 
	C2393.756592,2778.268799 2334.593994,2809.045410 2271.867920,2832.651123 
	C2255.096680,2838.962891 2237.688232,2843.627441 2221.072754,2850.294922 
	C2195.050049,2860.737061 2167.869141,2867.102539 2140.951660,2874.334473 
	C2124.645996,2878.715332 2107.897461,2881.536621 2091.257812,2884.564453 
	C2067.431152,2888.900146 2043.533081,2892.851074 2019.638916,2896.804932 
	C2014.726685,2897.617676 2009.699219,2897.748779 2004.720947,2898.145020 
	C1981.522217,2899.993164 1958.344727,2902.203613 1935.117554,2903.573730 
	C1898.225952,2905.749512 1861.385986,2904.637207 1824.471436,2902.412109 
	C1794.886108,2900.628662 1765.490356,2897.782471 1736.217529,2893.520752 
	C1720.449219,2891.224854 1704.827515,2887.899902 1689.165649,2884.902832 
	C1674.808472,2882.155273 1660.389038,2879.636475 1646.172485,2876.274902 
	C1626.755249,2871.683105 1607.244385,2867.209961 1588.243774,2861.199707 
	C1560.428589,2852.401367 1532.741699,2843.031006 1505.541504,2832.505371 
	C1482.138672,2823.449219 1459.573608,2812.248291 1436.494873,2802.328857 
	C1399.430664,2786.398193 1364.354370,2766.694824 1330.623779,2744.813477 
	C1301.373169,2725.838379 1272.633057,2705.901367 1245.007812,2684.646973 
	C1219.746948,2665.211914 1195.592773,2644.184326 1172.235718,2622.476318 
	C1152.314087,2603.960938 1134.022095,2583.665283 1115.388306,2563.801758 
	C1104.015015,2551.677734 1092.977661,2539.193604 1082.449585,2526.330566 
	C1046.349854,2482.223877 1014.122070,2435.405273 986.251221,2385.679932 
	C975.860291,2367.141113 966.113647,2348.202637 956.933411,2329.034424 
	C947.217346,2308.747070 937.974976,2288.192139 929.544006,2267.342285 
	C921.479614,2247.399170 914.373840,2227.043945 907.522156,2206.643311 
	C903.324951,2194.146240 900.455078,2181.206055 896.887329,2168.493408 
	C893.046448,2154.808105 888.456665,2141.298340 885.337708,2127.454346 
	C881.397644,2109.965088 878.525452,2092.231201 875.360840,2074.572998 
	C872.968018,2061.220459 870.849304,2047.818848 868.576416,2034.444580 
	C868.354370,2033.138306 867.701904,2031.887817 867.591919,2030.582397 
	C865.138367,2001.455200 860.804871,1972.478638 861.136230,1943.127197 
	C861.274841,1930.850098 859.918762,1918.548584 860.223022,1906.282471 
	C860.923401,1878.039307 861.500854,1849.759521 863.511414,1821.593262 
	C865.117371,1799.094849 867.926453,1776.598755 871.730103,1754.363037 
	C875.973511,1729.555908 881.656982,1704.978638 887.258728,1680.425537 
	C891.323303,1662.610107 895.793274,1644.855957 900.921631,1627.320068 
	C915.960938,1575.893799 935.282715,1526.049805 959.106750,1478.079712 
	C970.739929,1454.656006 983.805969,1431.909668 996.967712,1409.289795 
	C1007.817200,1390.643921 1019.763000,1372.635986 1031.630615,1353.752563 
M1803.555786,2289.674561 
	C1809.767578,2302.545166 1816.033081,2315.390381 1822.180176,2328.291748 
	C1836.461792,2358.265869 1850.787354,2388.219727 1864.880615,2418.282227 
	C1869.973145,2429.145752 1878.750122,2434.084473 1890.082397,2434.940918 
	C1905.787720,2436.127686 1917.146362,2430.400635 1925.260010,2412.939453 
	C1950.589966,2358.427734 1976.297729,2304.090820 2001.974731,2249.741211 
	C2015.455933,2221.205811 2029.354980,2192.866943 2042.746826,2164.290283 
	C2058.414551,2130.857666 2073.782959,2097.284668 2089.182373,2063.727295 
	C2095.139160,2050.746826 2100.711670,2037.589966 2106.659912,2024.605469 
	C2116.488037,2003.151978 2126.674805,1981.860840 2136.344727,1960.336914 
	C2145.321289,1940.355957 2153.586670,1920.055176 2162.602295,1900.092407 
	C2169.851074,1884.041626 2178.187744,1868.476318 2185.254395,1852.350586 
	C2194.033936,1832.316406 2201.887207,1811.878540 2210.352783,1791.703979 
	C2220.353516,1767.870605 2224.559814,1742.593262 2227.922607,1717.310669 
	C2231.709717,1688.836426 2231.595703,1660.156738 2226.708008,1631.676147 
	C2223.678467,1614.023193 2219.800537,1596.667480 2214.559326,1579.428589 
	C2208.538330,1559.625244 2201.112305,1540.531982 2191.827637,1522.219971 
	C2182.818115,1504.449951 2171.084473,1488.383667 2159.160400,1472.296997 
	C2138.042969,1443.807739 2112.548828,1420.203491 2083.827393,1400.206177 
	C2068.994141,1389.878662 2053.529541,1380.156006 2036.539185,1372.864380 
	C2010.235107,1361.575928 1983.280396,1352.844727 1955.389038,1346.856689 
	C1934.464722,1342.364258 1913.192017,1341.617920 1891.845337,1341.430908 
	C1870.445923,1341.243164 1849.320312,1343.421997 1828.374146,1347.438965 
	C1820.261841,1348.994751 1812.277344,1351.323364 1804.339844,1353.657227 
	C1794.815308,1356.457886 1785.202515,1359.132935 1775.988037,1362.773804 
	C1761.523315,1368.489502 1746.731079,1373.842041 1733.217163,1381.388916 
	C1713.211914,1392.561035 1694.635742,1405.994141 1676.754639,1420.557739 
	C1651.918945,1440.785522 1631.992188,1465.126953 1613.816162,1491.018921 
	C1598.110596,1513.391724 1586.067505,1537.905029 1577.527954,1563.863281 
	C1572.370728,1579.540039 1566.281006,1595.017212 1564.398804,1611.715210 
	C1562.837402,1625.565186 1559.411987,1639.219971 1558.129395,1653.083252 
	C1555.290527,1683.767578 1556.664673,1714.290894 1564.372070,1744.316406 
	C1569.149414,1762.927246 1572.545288,1782.036865 1579.048950,1800.023315 
	C1586.706177,1821.200562 1596.880005,1841.484741 1606.289673,1862.006226 
	C1613.759277,1878.296631 1622.013428,1894.229126 1629.390503,1910.559326 
	C1638.545898,1930.826416 1646.991089,1951.413208 1656.044312,1971.727661 
	C1667.534668,1997.510254 1679.260376,2023.188965 1691.005859,2048.856934 
	C1706.771606,2083.311035 1722.466309,2117.799805 1738.531372,2152.114502 
	C1759.820190,2197.587158 1781.437134,2242.906250 1803.555786,2289.674561 
z"/>
<path fill="#FDFFFE" opacity="1.000000" stroke="none" 
	d="
M1803.234375,2288.982910 
	C1781.437134,2242.906250 1759.820190,2197.587158 1738.531372,2152.114502 
	C1722.466309,2117.799805 1706.771606,2083.311035 1691.005859,2048.856934 
	C1679.260376,2023.188965 1667.534668,1997.510254 1656.044312,1971.727661 
	C1646.991089,1951.413208 1638.545898,1930.826416 1629.390503,1910.559326 
	C1622.013428,1894.229126 1613.759277,1878.296631 1606.289673,1862.006226 
	C1596.880005,1841.484741 1586.706177,1821.200562 1579.048950,1800.023315 
	C1572.545288,1782.036865 1569.149414,1762.927246 1564.372070,1744.316406 
	C1556.664673,1714.290894 1555.290527,1683.767578 1558.129395,1653.083252 
	C1559.411987,1639.219971 1562.837402,1625.565186 1564.398804,1611.715210 
	C1566.281006,1595.017212 1572.370728,1579.540039 1577.527954,1563.863281 
	C1586.067505,1537.905029 1598.110596,1513.391724 1613.816162,1491.018921 
	C1631.992188,1465.126953 1651.918945,1440.785522 1676.754639,1420.557739 
	C1694.635742,1405.994141 1713.211914,1392.561035 1733.217163,1381.388916 
	C1746.731079,1373.842041 1761.523315,1368.489502 1775.988037,1362.773804 
	C1785.202515,1359.132935 1794.815308,1356.457886 1804.339844,1353.657227 
	C1812.277344,1351.323364 1820.261841,1348.994751 1828.374146,1347.438965 
	C1849.320312,1343.421997 1870.445923,1341.243164 1891.845337,1341.430908 
	C1913.192017,1341.617920 1934.464722,1342.364258 1955.389038,1346.856689 
	C1983.280396,1352.844727 2010.235107,1361.575928 2036.539185,1372.864380 
	C2053.529541,1380.156006 2068.994141,1389.878662 2083.827393,1400.206177 
	C2112.548828,1420.203491 2138.042969,1443.807739 2159.160400,1472.296997 
	C2171.084473,1488.383667 2182.818115,1504.449951 2191.827637,1522.219971 
	C2201.112305,1540.531982 2208.538330,1559.625244 2214.559326,1579.428589 
	C2219.800537,1596.667480 2223.678467,1614.023193 2226.708008,1631.676147 
	C2231.595703,1660.156738 2231.709717,1688.836426 2227.922607,1717.310669 
	C2224.559814,1742.593262 2220.353516,1767.870605 2210.352783,1791.703979 
	C2201.887207,1811.878540 2194.033936,1832.316406 2185.254395,1852.350586 
	C2178.187744,1868.476318 2169.851074,1884.041626 2162.602295,1900.092407 
	C2153.586670,1920.055176 2145.321289,1940.355957 2136.344727,1960.336914 
	C2126.674805,1981.860840 2116.488037,2003.151978 2106.659912,2024.605469 
	C2100.711670,2037.589966 2095.139160,2050.746826 2089.182373,2063.727295 
	C2073.782959,2097.284668 2058.414551,2130.857666 2042.746826,2164.290283 
	C2029.354980,2192.866943 2015.455933,2221.205811 2001.974731,2249.741211 
	C1976.297729,2304.090820 1950.589966,2358.427734 1925.260010,2412.939453 
	C1917.146362,2430.400635 1905.787720,2436.127686 1890.082397,2434.940918 
	C1878.750122,2434.084473 1869.973145,2429.145752 1864.880615,2418.282227 
	C1850.787354,2388.219727 1836.461792,2358.265869 1822.180176,2328.291748 
	C1816.033081,2315.390381 1809.767578,2302.545166 1803.234375,2288.982910 
M1930.270874,1538.330933 
	C1899.974121,1530.827759 1870.157471,1532.473022 1841.078735,1543.750732 
	C1831.515625,1547.459473 1821.518799,1551.179443 1813.345581,1557.127686 
	C1790.201172,1573.971313 1770.713989,1594.354492 1760.195068,1621.704224 
	C1756.502563,1631.305054 1752.765869,1641.135986 1751.054077,1651.202759 
	C1746.875244,1675.780029 1747.903931,1700.209717 1756.043579,1724.136353 
	C1763.539795,1746.171753 1774.752808,1765.972778 1790.958984,1782.637451 
	C1796.685669,1788.526001 1803.530518,1793.589966 1810.562866,1797.888306 
	C1823.276611,1805.659546 1836.215576,1812.928589 1850.747925,1817.369995 
	C1861.088623,1820.530273 1871.501221,1821.595703 1882.027832,1823.061035 
	C1898.854736,1825.403320 1915.185669,1823.014526 1931.254761,1818.712646 
	C1952.405273,1813.050049 1971.093018,1802.703247 1988.314209,1788.947510 
	C2000.298218,1779.375244 2009.556152,1767.774292 2017.099976,1755.067871 
	C2028.703857,1735.522583 2036.009888,1714.332764 2038.072021,1691.223022 
	C2039.671265,1673.299194 2037.858398,1656.012451 2032.923828,1639.052734 
	C2027.510742,1620.448608 2018.783936,1603.551392 2007.197266,1587.656494 
	C1996.443481,1572.904297 1982.518677,1562.911743 1967.557373,1553.701782 
	C1956.470337,1546.876709 1944.375977,1542.256226 1930.270874,1538.330933 
z"/>
<path fill="#27D368" opacity="1.000000" stroke="none" 
	d="
M1931.037842,1538.614746 
	C1944.375977,1542.256226 1956.470337,1546.876709 1967.557373,1553.701782 
	C1982.518677,1562.911743 1996.443481,1572.904297 2007.197266,1587.656494 
	C2018.783936,1603.551392 2027.510742,1620.448608 2032.923828,1639.052734 
	C2037.858398,1656.012451 2039.671265,1673.299194 2038.072021,1691.223022 
	C2036.009888,1714.332764 2028.703857,1735.522583 2017.099976,1755.067871 
	C2009.556152,1767.774292 2000.298218,1779.375244 1988.314209,1788.947510 
	C1971.093018,1802.703247 1952.405273,1813.050049 1931.254761,1818.712646 
	C1915.185669,1823.014526 1898.854736,1825.403320 1882.027832,1823.061035 
	C1871.501221,1821.595703 1861.088623,1820.530273 1850.747925,1817.369995 
	C1836.215576,1812.928589 1823.276611,1805.659546 1810.562866,1797.888306 
	C1803.530518,1793.589966 1796.685669,1788.526001 1790.958984,1782.637451 
	C1774.752808,1765.972778 1763.539795,1746.171753 1756.043579,1724.136353 
	C1747.903931,1700.209717 1746.875244,1675.780029 1751.054077,1651.202759 
	C1752.765869,1641.135986 1756.502563,1631.305054 1760.195068,1621.704224 
	C1770.713989,1594.354492 1790.201172,1573.971313 1813.345581,1557.127686 
	C1821.518799,1551.179443 1831.515625,1547.459473 1841.078735,1543.750732 
	C1870.157471,1532.473022 1899.974121,1530.827759 1931.037842,1538.614746 
z"/>
</svg>